# xmcd
#
# Track frame offsets:
# 150
# 11731
# 21786
# 46742
# 61252
# 81197
# 99856
# 122315
# 144608
# 164541
# 183895
# 204162
# 221303
# 237344
#
# Disc length: 3418 seconds
#
#
# Revision: 0
# Processed by: cddbd v1.5.1PL2 Copyright (c) Steve Scherf et al.
# Submitted via: FreeRIP 2.944 
#
DISCID=aa0d580e
DTITLE=Sabina Y Paez  - Enemigos Intimos
DYEAR=1990
DGENRE=Pop
TTITLE0=La Vida Moderna
TTITLE1=Lazaro
TTITLE2=Llueve Sobre Mojado
TTITLE3=Tengo Una Muneca Que Regala Besos
TTITLE4=Si Volvieran Los Dragones
TTITLE5=Cecilia
TTITLE6=Delirium Tremens
TTITLE7=Yo Me Bajo En Atocha
TTITLE8=Buenos Aires
TTITLE9=Mas Guapa Que Cualquiera
TTITLE10=Flores En Su Entierro
TTITLE11=Hasta Cuando?
TTITLE12=La Cancion De Los (Buenos) Borrachos
TTITLE13=Enemigos Intimos
EXTD=hugos
EXTT0=
EXTT1=
EXTT2=
EXTT3=
EXTT4=
EXTT5=
EXTT6=
EXTT7=
EXTT8=
EXTT9=
EXTT10=
EXTT11=
EXTT12=
EXTT13=
PLAYORDER=
